# xmcd
#
# Track frame offsets:
#	150
#	11070
#	23022
#	33235
#	49592
#	60197
#	74057
#	86142
#	100145
#	109392
#	121470
#	134810
#	149187
#	162572
#	174610
#	186780
#	199400
#	208592
#	226452
#	238607
#
# Disc length: 3333 seconds
#
# Revision: 0
# Processed by: cddbd v1.4b42PL1 Copyright (c) Steve Scherf et al.
# Submitted via: dBpowerAMP V4.0
#
DISCID=310d0314
DTITLE=Tom Jones - The Tom Jones Collection [Disc 1]
DYEAR=1900
DGENRE=Oldies
TTITLE0=Green Green Grass of Home
TTITLE1=Delilah
TTITLE2=What's New Pussycat
TTITLE3=She's a Lady
TTITLE4=Please Release Me
TTITLE5=Bridge Over Troubled Water
TTITLE6=All By Myself
TTITLE7=Too Much, Too Little, Too Late
TTITLE8=Breaking Up is Hard to Do
TTITLE9=We Don't Talk Anymore
TTITLE10=Let It Be
TTITLE11=You've Lost that Loving Feeling
TTITLE12=I Write the Songs
TTITLE13=Endless Love
TTITLE14=The Most Beautiful Girl in the World
TTITLE15=Let Your Love Flow
TTITLE16=For Once in My Life
TTITLE17=She Believes in Me
TTITLE18=You Don't Have to Say You Love Me
TTITLE19=Do You Think I'm Sexy
EXTD=
EXTT0=
EXTT1=
EXTT2=
EXTT3=
EXTT4=
EXTT5=
EXTT6=
EXTT7=
EXTT8=
EXTT9=
EXTT10=
EXTT11=
EXTT12=
EXTT13=
EXTT14=
EXTT15=
EXTT16=
EXTT17=
EXTT18=
EXTT19=
PLAYORDER=
